<svg width="7" height="12" viewBox="0 0 7 12" fill="none" xmlns="http://www.w3.org/2000/svg">
<path d="M0.879362 12C0.705709 12.001 0.535689 11.9513 0.390979 11.8572C0.246269 11.7631 0.133425 11.6289 0.0668341 11.4717C0.00024315 11.3145 -0.0170776 11.1414 0.0170801 10.9746C0.0512379 10.8077 0.135326 10.6546 0.258625 10.5347L4.8923 6.00175L0.258625 1.46879C0.0939954 1.30743 0.00150728 1.08859 0.00150728 0.860398C0.00150728 0.632206 0.0939954 0.41336 0.258625 0.252005C0.423255 0.0906488 0.646541 1.70016e-09 0.879362 0C1.11218 -1.70016e-09 1.33547 0.0906488 1.5001 0.252005L6.74577 5.39335C6.9086 5.5539 7 5.77108 7 5.99746C7 6.22384 6.9086 6.44102 6.74577 6.60157L1.5001 11.7429C1.41913 11.8239 1.32257 11.8883 1.21602 11.9324C1.10946 11.9766 0.995036 11.9995 0.879362 12Z" fill="#2C2656"/>
</svg>
