<svg width="7" height="12" viewBox="0 0 7 12" fill="none" xmlns="http://www.w3.org/2000/svg">
<path d="M6.12064 1.42282e-05C6.29429 -0.000974717 6.46431 0.0487432 6.60902 0.142831C6.75373 0.236918 6.86658 0.371112 6.93317 0.528304C6.99976 0.685495 7.01708 0.858562 6.98292 1.02544C6.94876 1.19232 6.86467 1.34544 6.74138 1.4653L2.1077 5.99825L6.74137 10.5312C6.906 10.6926 6.99849 10.9114 6.99849 11.1396C6.99849 11.3678 6.906 11.5866 6.74137 11.748C6.57675 11.9094 6.35346 12 6.12064 12C5.88782 12 5.66453 11.9094 5.4999 11.748L0.254233 6.60665C0.0913987 6.4461 5.04524e-07 6.22892 5.24315e-07 6.00254C5.44105e-07 5.77616 0.0913988 5.55898 0.254233 5.39843L5.4999 0.257081C5.58087 0.176115 5.67743 0.111704 5.78398 0.0675773C5.89054 0.0234498 6.00497 0.000485333 6.12064 1.42282e-05Z" fill="#2C2656"/>
</svg>
