<svg width="40" height="40" viewBox="0 0 40 40" fill="none" xmlns="http://www.w3.org/2000/svg">
<path d="M20 0C8.95469 0 0 8.95469 0 20C0 31.0453 8.95469 40 20 40C31.0453 40 40 31.0453 40 20C40 8.95469 31.0453 0 20 0ZM22.7992 28.1383C22.7992 28.8807 22.5043 29.5927 21.9793 30.1176C21.4544 30.6426 20.7424 30.9375 20 30.9375C19.2576 30.9375 18.5456 30.6426 18.0207 30.1176C17.4957 29.5927 17.2008 28.8807 17.2008 28.1383C17.2008 27.3959 17.4957 26.6839 18.0207 26.1589C18.5456 25.634 19.2576 25.3391 20 25.3391C20.7424 25.3391 21.4544 25.634 21.9793 26.1589C22.5043 26.6839 22.7992 27.3959 22.7992 28.1383ZM23.1711 11.9766L22.8016 21.3078C22.7727 22.0315 22.4649 22.716 21.9427 23.2178C21.4205 23.7197 20.7243 24 20 24C19.2757 24 18.5795 23.7197 18.0573 23.2178C17.5351 22.716 17.2273 22.0315 17.1984 21.3078L16.8289 11.9766C16.8141 11.5994 16.8756 11.2231 17.0097 10.8702C17.1438 10.5174 17.3477 10.1953 17.6094 9.92315C17.871 9.65103 18.1848 9.43454 18.5321 9.28665C18.8794 9.13877 19.253 9.06252 19.6305 9.0625H20.3695C20.747 9.06252 21.1206 9.13877 21.4679 9.28665C21.8152 9.43454 22.129 9.65103 22.3906 9.92315C22.6523 10.1953 22.8562 10.5174 22.9903 10.8702C23.1244 11.2231 23.1859 11.5994 23.1711 11.9766Z" fill="#E2E4F0"/>
</svg>
