<svg width="17" height="17" viewBox="0 0 17 17" fill="none" xmlns="http://www.w3.org/2000/svg">
<path fill-rule="evenodd" clip-rule="evenodd" d="M8.50304 1.06674C12.61 1.06674 15.9406 4.39737 15.9406 8.50429C15.9406 12.6112 12.61 15.9418 8.50304 15.9418C4.39612 15.9418 1.06549 12.6112 1.06549 8.50429C1.06549 4.39737 4.39612 1.06674 8.50304 1.06674ZM6.95854 10.9201L5.13764 9.09766C4.82743 8.78726 4.82736 8.28108 5.13764 7.97074C5.44799 7.66046 5.95642 7.6624 6.2645 7.97074L7.54822 9.25547L10.7417 6.06201C11.052 5.75166 11.5583 5.75166 11.8685 6.06201C12.1789 6.37229 12.1784 6.87896 11.8685 7.18887L8.11074 10.9467C7.80084 11.2566 7.29416 11.257 6.98388 10.9467C6.97516 10.9379 6.96675 10.9291 6.95854 10.9201Z" fill="#00BA00"/>
</svg>
