<svg width="19" height="21" viewBox="0 0 19 21" fill="none" xmlns="http://www.w3.org/2000/svg">
<path d="M16.6252 16.4466H2.37516C2.1652 16.4466 1.96384 16.5351 1.81537 16.6926C1.6669 16.8502 1.5835 17.0638 1.5835 17.2866C1.5835 17.5093 1.6669 17.723 1.81537 17.8805C1.96384 18.038 2.1652 18.1265 2.37516 18.1265H16.6252C16.8351 18.1265 17.0365 18.038 17.185 17.8805C17.3334 17.723 17.4168 17.5093 17.4168 17.2866C17.4168 17.0638 17.3334 16.8502 17.185 16.6926C17.0365 16.5351 16.8351 16.4466 16.6252 16.4466Z" fill="black"/>
<path d="M9.49982 2.16766C9.28986 2.16766 9.08849 2.25616 8.94003 2.41368C8.79156 2.5712 8.70815 2.78484 8.70815 3.0076V11.9026L6.10357 9.13076C5.9545 8.97259 5.75231 8.88374 5.54149 8.88374C5.33067 8.88374 5.12848 8.97259 4.9794 9.13076C4.83033 9.28892 4.74658 9.50344 4.74658 9.72711C4.74658 9.95079 4.83033 10.1653 4.9794 10.3235L8.93774 14.5232C9.01133 14.6019 9.09889 14.6644 9.19536 14.707C9.29184 14.7497 9.39531 14.7716 9.49982 14.7716C9.60433 14.7716 9.70781 14.7497 9.80428 14.707C9.90075 14.6644 9.98831 14.6019 10.0619 14.5232L14.0202 10.3235C14.0941 10.2452 14.1526 10.1522 14.1926 10.0499C14.2325 9.94754 14.2531 9.83787 14.2531 9.72711C14.2531 9.61636 14.2325 9.50669 14.1926 9.40437C14.1526 9.30205 14.0941 9.20907 14.0202 9.13076C13.9464 9.05244 13.8588 8.99032 13.7624 8.94794C13.6659 8.90555 13.5625 8.88374 13.4582 8.88374C13.3538 8.88374 13.2504 8.90555 13.154 8.94794C13.0575 8.99032 12.9699 9.05244 12.8961 9.13076L10.2915 11.9026V3.0076C10.2915 2.78484 10.2081 2.5712 10.0596 2.41368C9.91115 2.25616 9.70978 2.16766 9.49982 2.16766Z" fill="black"/>
</svg>
