<svg width="18" height="18" viewBox="0 0 18 18" fill="none" xmlns="http://www.w3.org/2000/svg">
<path d="M16.875 13.5V15.75C16.875 16.3704 16.3704 16.875 15.75 16.875H2.25C1.62956 16.875 1.125 16.3704 1.125 15.75V13.5C1.125 13.1895 1.37644 12.9375 1.6875 12.9375C1.99856 12.9375 2.25 13.1895 2.25 13.5V15.75H15.75V13.5C15.75 13.1895 16.0014 12.9375 16.3125 12.9375C16.6236 12.9375 16.875 13.1895 16.875 13.5Z" fill="black"/>
<path d="M4.66495 6.02273C4.44502 5.8028 4.44502 5.4473 4.66495 5.22736L8.60189 1.29042C8.82183 1.06992 9.18127 1.07273 9.39839 1.29042L13.3353 5.22736C13.5553 5.4473 13.5553 5.8028 13.3353 6.02273C13.2256 6.13242 13.0816 6.18755 12.9376 6.18755C12.7936 6.18755 12.6496 6.13242 12.54 6.02273L9.56264 3.04542V12.9375C9.56264 13.248 9.3112 13.5 9.00014 13.5C8.68908 13.5 8.43764 13.248 8.43764 12.9375V3.04542L5.46033 6.02273C5.24039 6.24267 4.88489 6.24267 4.66495 6.02273Z" fill="black"/>
</svg>
