<svg width="23" height="23" viewBox="0 0 23 23" fill="none" xmlns="http://www.w3.org/2000/svg">
<path d="M11.5003 1.91675C6.21608 1.91675 1.91699 6.21583 1.91699 11.5001C1.91699 16.7843 6.21608 21.0834 11.5003 21.0834C16.7846 21.0834 21.0837 16.7843 21.0837 11.5001C21.0837 6.21583 16.7846 1.91675 11.5003 1.91675ZM11.5003 19.1667C7.27312 19.1667 3.83366 15.7273 3.83366 11.5001C3.83366 7.27287 7.27312 3.83341 11.5003 3.83341C15.7275 3.83341 19.167 7.27287 19.167 11.5001C19.167 15.7273 15.7275 19.1667 11.5003 19.1667Z" fill="#FF9D52"/>
<path d="M11.5003 6.7085C10.9704 6.7085 10.542 7.13783 10.542 7.66683V12.4585C10.542 12.9875 10.9704 13.4168 11.5003 13.4168C12.0303 13.4168 12.4587 12.9875 12.4587 12.4585V7.66683C12.4587 7.13783 12.0303 6.7085 11.5003 6.7085Z" fill="#FF9D52"/>
<path d="M11.5003 14.375C11.2512 14.375 11.002 14.4804 10.8199 14.6529C10.6465 14.835 10.542 15.0842 10.542 15.3333C10.542 15.5825 10.6465 15.8317 10.8199 16.0137C11.1841 16.3683 11.8166 16.3683 12.1807 16.0137C12.3532 15.8317 12.4587 15.5825 12.4587 15.3333C12.4587 15.0842 12.3532 14.835 12.1807 14.6529C11.9987 14.4804 11.7495 14.375 11.5003 14.375Z" fill="#FF9D52"/>
</svg>
