<svg width="21" height="21" viewBox="0 0 21 21" fill="none" xmlns="http://www.w3.org/2000/svg">
<g clip-path="url(#clip0_1_209)">
<path d="M3.5 15.75V15.1813C3.5 14.8838 3.64 14.6038 3.85875 14.4725C5.3375 13.5888 7.02625 13.125 8.75 13.125C8.77625 13.125 8.79375 13.125 8.82 13.1338C8.9075 12.5213 9.0825 11.935 9.33625 11.4012C9.14375 11.3837 8.95125 11.375 8.75 11.375C6.6325 11.375 4.655 11.9612 2.96625 12.9675C2.19625 13.4225 1.75 14.28 1.75 15.1813V17.5H9.8525C9.485 16.975 9.19625 16.38 9.00375 15.75H3.5Z" fill="#75809B"/>
<path d="M8.75 10.5C10.6838 10.5 12.25 8.93375 12.25 7C12.25 5.06625 10.6838 3.5 8.75 3.5C6.81625 3.5 5.25 5.06625 5.25 7C5.25 8.93375 6.81625 10.5 8.75 10.5ZM8.75 5.25C9.7125 5.25 10.5 6.0375 10.5 7C10.5 7.9625 9.7125 8.75 8.75 8.75C7.7875 8.75 7 7.9625 7 7C7 6.0375 7.7875 5.25 8.75 5.25Z" fill="#75809B"/>
<path d="M18.1562 14C18.1562 13.8075 18.13 13.6325 18.1037 13.4488L19.1012 12.565L18.2262 11.0513L16.9575 11.48C16.6775 11.2437 16.3625 11.06 16.0125 10.9287L15.75 9.625H14L13.7375 10.9287C13.3875 11.06 13.0725 11.2437 12.7925 11.48L11.5237 11.0513L10.6487 12.565L11.6462 13.4488C11.62 13.6325 11.5937 13.8075 11.5937 14C11.5937 14.1925 11.62 14.3675 11.6462 14.5512L10.6487 15.435L11.5237 16.9488L12.7925 16.52C13.0725 16.7562 13.3875 16.94 13.7375 17.0712L14 18.375H15.75L16.0125 17.0712C16.3625 16.94 16.6775 16.7562 16.9575 16.52L18.2262 16.9488L19.1012 15.435L18.1037 14.5512C18.13 14.3675 18.1562 14.1925 18.1562 14ZM14.875 15.75C13.9125 15.75 13.125 14.9625 13.125 14C13.125 13.0375 13.9125 12.25 14.875 12.25C15.8375 12.25 16.625 13.0375 16.625 14C16.625 14.9625 15.8375 15.75 14.875 15.75Z" fill="#75809B"/>
</g>
<defs>
<clipPath id="clip0_1_209">
<rect width="21" height="21" fill="white"/>
</clipPath>
</defs>
</svg>
