<svg width="20" height="20" viewBox="0 0 20 20" fill="none" xmlns="http://www.w3.org/2000/svg">
<g clip-path="url(#clip0_1_206)">
<path d="M16.125 8.36668C15.5583 5.49168 13.0333 3.33334 10 3.33334C7.59167 3.33334 5.5 4.70001 4.45833 6.70001C1.95 6.96668 0 9.09168 0 11.6667C0 14.425 2.24167 16.6667 5 16.6667H15.8333C18.1333 16.6667 20 14.8 20 12.5C20 10.3 18.2917 8.51668 16.125 8.36668ZM15.8333 15H5C3.15833 15 1.66667 13.5083 1.66667 11.6667C1.66667 9.95834 2.94167 8.53334 4.63333 8.35834L5.525 8.26668L5.94167 7.47501C6.73333 5.95001 8.28333 5.00001 10 5.00001C12.1833 5.00001 14.0667 6.55001 14.4917 8.69168L14.7417 9.94168L16.0167 10.0333C17.3167 10.1167 18.3333 11.2083 18.3333 12.5C18.3333 13.875 17.2083 15 15.8333 15ZM6.66667 10.8333H8.79167V13.3333H11.2083V10.8333H13.3333L10 7.50001L6.66667 10.8333Z" fill="#75809B"/>
</g>
<defs>
<clipPath id="clip0_1_206">
<rect width="20" height="20" fill="white"/>
</clipPath>
</defs>
</svg>
