<svg width="20" height="20" viewBox="0 0 20 20" fill="none" xmlns="http://www.w3.org/2000/svg">
<g clip-path="url(#clip0_1_201)">
<path d="M8.33335 12.5H13.2334C13.4584 12.2417 13.7917 12.0833 14.1667 12.0833C14.8584 12.0833 15.4167 12.6417 15.4167 13.3333C15.4167 14.025 14.8584 14.5833 14.1667 14.5833C13.8 14.5833 13.4667 14.425 13.2334 14.1667H9.91669C9.53335 16.0667 7.85002 17.5 5.83335 17.5C3.53335 17.5 1.66669 15.6333 1.66669 13.3333C1.66669 11.3167 3.10002 9.63332 5.00002 9.24999V10.975C4.03335 11.3167 3.33335 12.25 3.33335 13.3333C3.33335 14.7083 4.45835 15.8333 5.83335 15.8333C7.20835 15.8333 8.33335 14.7083 8.33335 13.3333V12.5ZM10.4167 3.33332C11.7917 3.33332 12.9167 4.45832 12.9167 5.83332H14.5834C14.5834 3.53332 12.7167 1.66666 10.4167 1.66666C8.11669 1.66666 6.25002 3.53332 6.25002 5.83332C6.25002 7.02499 6.75002 8.09166 7.54169 8.84999L5.58335 12.1C5.01669 12.2167 4.58335 12.725 4.58335 13.3333C4.58335 14.025 5.14169 14.5833 5.83335 14.5833C6.52502 14.5833 7.08335 14.025 7.08335 13.3333C7.08335 13.2 7.06669 13.075 7.02502 12.9583L9.84169 8.26666C8.74169 8.00832 7.91669 7.01666 7.91669 5.83332C7.91669 4.45832 9.04169 3.33332 10.4167 3.33332ZM14.1667 10.8333C13.6334 10.8333 13.1417 11 12.7334 11.2833L10.1917 7.05832C9.60835 6.95832 9.16669 6.44999 9.16669 5.83332C9.16669 5.14166 9.72502 4.58332 10.4167 4.58332C11.1084 4.58332 11.6667 5.14166 11.6667 5.83332C11.6667 5.95832 11.65 6.07499 11.6167 6.19166L13.4417 9.23332C13.675 9.19166 13.9167 9.16666 14.1667 9.16666C16.4667 9.16666 18.3334 11.0333 18.3334 13.3333C18.3334 15.6333 16.4667 17.5 14.1667 17.5C12.625 17.5 11.275 16.6583 10.5584 15.4167H12.7834C13.1834 15.6833 13.6584 15.8333 14.1667 15.8333C15.5417 15.8333 16.6667 14.7083 16.6667 13.3333C16.6667 11.9583 15.5417 10.8333 14.1667 10.8333Z" fill="#75809B"/>
</g>
<defs>
<clipPath id="clip0_1_201">
<rect width="20" height="20" fill="white"/>
</clipPath>
</defs>
</svg>
