<svg width="19" height="19" viewBox="0 0 19 19" fill="none" xmlns="http://www.w3.org/2000/svg">
<g clip-path="url(#clip0_1_193)">
<path d="M13.1892 3.57831L15.4296 5.81872L13.1892 8.05914L10.9488 5.81872L13.1892 3.57831ZM7.125 3.95831V7.12497H3.95833V3.95831H7.125ZM15.0417 11.875V15.0416H11.875V11.875H15.0417ZM7.125 11.875V15.0416H3.95833V11.875H7.125ZM13.1892 1.33789L8.70833 5.81081L13.1892 10.2916L17.67 5.81081L13.1892 1.33789ZM8.70833 2.37497H2.375V8.70831H8.70833V2.37497ZM16.625 10.2916H10.2917V16.625H16.625V10.2916ZM8.70833 10.2916H2.375V16.625H8.70833V10.2916Z" fill="#75809B"/>
</g>
<defs>
<clipPath id="clip0_1_193">
<rect width="19" height="19" fill="white"/>
</clipPath>
</defs>
</svg>
