<svg width="20" height="20" viewBox="0 0 20 20" fill="none" xmlns="http://www.w3.org/2000/svg">
<g clip-path="url(#clip0_1_281)">
<path d="M8.33329 12.5H13.2333C13.4583 12.2417 13.7916 12.0833 14.1666 12.0833C14.8583 12.0833 15.4166 12.6417 15.4166 13.3333C15.4166 14.025 14.8583 14.5833 14.1666 14.5833C13.8 14.5833 13.4666 14.425 13.2333 14.1667H9.91663C9.53329 16.0667 7.84996 17.5 5.83329 17.5C3.53329 17.5 1.66663 15.6333 1.66663 13.3333C1.66663 11.3167 3.09996 9.63332 4.99996 9.24999V10.975C4.03329 11.3167 3.33329 12.25 3.33329 13.3333C3.33329 14.7083 4.45829 15.8333 5.83329 15.8333C7.20829 15.8333 8.33329 14.7083 8.33329 13.3333V12.5ZM10.4166 3.33332C11.7916 3.33332 12.9166 4.45832 12.9166 5.83332H14.5833C14.5833 3.53332 12.7166 1.66666 10.4166 1.66666C8.11663 1.66666 6.24996 3.53332 6.24996 5.83332C6.24996 7.02499 6.74996 8.09166 7.54163 8.84999L5.58329 12.1C5.01663 12.2167 4.58329 12.725 4.58329 13.3333C4.58329 14.025 5.14163 14.5833 5.83329 14.5833C6.52496 14.5833 7.08329 14.025 7.08329 13.3333C7.08329 13.2 7.06663 13.075 7.02496 12.9583L9.84163 8.26666C8.74163 8.00832 7.91663 7.01666 7.91663 5.83332C7.91663 4.45832 9.04163 3.33332 10.4166 3.33332ZM14.1666 10.8333C13.6333 10.8333 13.1416 11 12.7333 11.2833L10.1916 7.05832C9.60829 6.95832 9.16663 6.44999 9.16663 5.83332C9.16663 5.14166 9.72496 4.58332 10.4166 4.58332C11.1083 4.58332 11.6666 5.14166 11.6666 5.83332C11.6666 5.95832 11.65 6.07499 11.6166 6.19166L13.4416 9.23332C13.675 9.19166 13.9166 9.16666 14.1666 9.16666C16.4666 9.16666 18.3333 11.0333 18.3333 13.3333C18.3333 15.6333 16.4666 17.5 14.1666 17.5C12.625 17.5 11.275 16.6583 10.5583 15.4167H12.7833C13.1833 15.6833 13.6583 15.8333 14.1666 15.8333C15.5416 15.8333 16.6666 14.7083 16.6666 13.3333C16.6666 11.9583 15.5416 10.8333 14.1666 10.8333Z" fill="#3E86F7"/>
</g>
<defs>
<clipPath id="clip0_1_281">
<rect width="20" height="20" fill="white"/>
</clipPath>
</defs>
</svg>
