<svg width="22" height="22" viewBox="0 0 22 22" fill="none" xmlns="http://www.w3.org/2000/svg">
<g clip-path="url(#clip0_1_276)">
<path d="M6.41671 8.25H1.83337V6.41667H6.41671V8.25ZM6.41671 11H1.83337V12.8333H6.41671V11ZM18.8742 17.4167L15.3634 13.9058C14.63 14.3825 13.7684 14.6667 12.8334 14.6667C10.3034 14.6667 8.25004 12.6133 8.25004 10.0833C8.25004 7.55333 10.3034 5.5 12.8334 5.5C15.3634 5.5 17.4167 7.55333 17.4167 10.0833C17.4167 11.0183 17.1325 11.88 16.6559 12.6042L20.1667 16.1242L18.8742 17.4167ZM15.5834 10.0833C15.5834 8.57083 14.3459 7.33333 12.8334 7.33333C11.3209 7.33333 10.0834 8.57083 10.0834 10.0833C10.0834 11.5958 11.3209 12.8333 12.8334 12.8333C14.3459 12.8333 15.5834 11.5958 15.5834 10.0833ZM1.83337 17.4167H11V15.5833H1.83337V17.4167Z" fill="#3E86F7"/>
</g>
<defs>
<clipPath id="clip0_1_276">
<rect width="22" height="22" fill="white"/>
</clipPath>
</defs>
</svg>
