<svg width="22" height="22" viewBox="0 0 22 22" fill="none" xmlns="http://www.w3.org/2000/svg">
<g clip-path="url(#clip0_1_196)">
<path d="M6.41665 8.25H1.83331V6.41667H6.41665V8.25ZM6.41665 11H1.83331V12.8333H6.41665V11ZM18.8741 17.4167L15.3633 13.9058C14.63 14.3825 13.7683 14.6667 12.8333 14.6667C10.3033 14.6667 8.24998 12.6133 8.24998 10.0833C8.24998 7.55333 10.3033 5.5 12.8333 5.5C15.3633 5.5 17.4166 7.55333 17.4166 10.0833C17.4166 11.0183 17.1325 11.88 16.6558 12.6042L20.1666 16.1242L18.8741 17.4167ZM15.5833 10.0833C15.5833 8.57083 14.3458 7.33333 12.8333 7.33333C11.3208 7.33333 10.0833 8.57083 10.0833 10.0833C10.0833 11.5958 11.3208 12.8333 12.8333 12.8333C14.3458 12.8333 15.5833 11.5958 15.5833 10.0833ZM1.83331 17.4167H11V15.5833H1.83331V17.4167Z" fill="#75809B"/>
</g>
<defs>
<clipPath id="clip0_1_196">
<rect width="22" height="22" fill="white"/>
</clipPath>
</defs>
</svg>
