<svg width="21" height="21" viewBox="0 0 21 21" fill="none" xmlns="http://www.w3.org/2000/svg">
<g clip-path="url(#clip0_1_289)">
<path d="M3.5 15.75V15.1813C3.5 14.8838 3.64 14.6038 3.85875 14.4725C5.3375 13.5888 7.02625 13.125 8.75 13.125C8.77625 13.125 8.79375 13.125 8.82 13.1338C8.9075 12.5213 9.0825 11.935 9.33625 11.4012C9.14375 11.3837 8.95125 11.375 8.75 11.375C6.6325 11.375 4.655 11.9612 2.96625 12.9675C2.19625 13.4225 1.75 14.28 1.75 15.1813V17.5H9.8525C9.485 16.975 9.19625 16.38 9.00375 15.75H3.5Z" fill="#3E86F7"/>
<path d="M8.75 10.5C10.6838 10.5 12.25 8.93375 12.25 7C12.25 5.06625 10.6838 3.5 8.75 3.5C6.81625 3.5 5.25 5.06625 5.25 7C5.25 8.93375 6.81625 10.5 8.75 10.5ZM8.75 5.25C9.7125 5.25 10.5 6.0375 10.5 7C10.5 7.9625 9.7125 8.75 8.75 8.75C7.7875 8.75 7 7.9625 7 7C7 6.0375 7.7875 5.25 8.75 5.25Z" fill="#3E86F7"/>
<path d="M18.1563 14C18.1563 13.8075 18.1301 13.6325 18.1038 13.4488L19.1013 12.565L18.2263 11.0513L16.9576 11.48C16.6776 11.2437 16.3626 11.06 16.0126 10.9287L15.7501 9.625H14.0001L13.7376 10.9287C13.3876 11.06 13.0726 11.2437 12.7926 11.48L11.5238 11.0513L10.6488 12.565L11.6463 13.4488C11.6201 13.6325 11.5938 13.8075 11.5938 14C11.5938 14.1925 11.6201 14.3675 11.6463 14.5512L10.6488 15.435L11.5238 16.9488L12.7926 16.52C13.0726 16.7562 13.3876 16.94 13.7376 17.0712L14.0001 18.375H15.7501L16.0126 17.0712C16.3626 16.94 16.6776 16.7562 16.9576 16.52L18.2263 16.9488L19.1013 15.435L18.1038 14.5512C18.1301 14.3675 18.1563 14.1925 18.1563 14ZM14.8751 15.75C13.9126 15.75 13.1251 14.9625 13.1251 14C13.1251 13.0375 13.9126 12.25 14.8751 12.25C15.8376 12.25 16.6251 13.0375 16.6251 14C16.6251 14.9625 15.8376 15.75 14.8751 15.75Z" fill="#3E86F7"/>
</g>
<defs>
<clipPath id="clip0_1_289">
<rect width="21" height="21" fill="white"/>
</clipPath>
</defs>
</svg>
