<svg width="40" height="40" viewBox="0 0 40 40" fill="none" xmlns="http://www.w3.org/2000/svg">
<rect width="40" height="40" rx="20" fill="#2B2753"/>
<path d="M13.6145 13.9896C13.6145 17.3607 16.358 20.1042 19.7291 20.1042C23.1002 20.1042 25.8437 17.3607 25.8437 13.9896C25.8437 10.6185 23.1002 7.875 19.7291 7.875C16.358 7.875 13.6145 10.6185 13.6145 13.9896ZM15.427 13.9896C15.427 11.6211 17.3606 9.6875 19.7291 9.6875C22.0976 9.6875 24.0312 11.6211 24.0312 13.9896C24.0312 16.358 22.0976 18.2917 19.7291 18.2917C17.3606 18.2917 15.427 16.358 15.427 13.9896Z" fill="white" stroke="white" stroke-width="0.25"/>
<path d="M27.7708 29.6146C27.7708 30.1107 28.1809 30.5209 28.677 30.5209C29.1731 30.5209 29.5833 30.1107 29.5833 29.6146C29.5833 25.0769 25.14 21.4167 19.7292 21.4167C14.3183 21.4167 9.875 25.0769 9.875 29.6146C9.875 30.1107 10.2851 30.5209 10.7812 30.5209C11.2774 30.5209 11.6875 30.1107 11.6875 29.6146C11.6875 26.1149 15.2702 23.2292 19.7292 23.2292C24.1882 23.2292 27.7708 26.1149 27.7708 29.6146Z" fill="white" stroke="white" stroke-width="0.25"/>
</svg>
