<svg width="40" height="40" viewBox="0 0 40 40" fill="none" xmlns="http://www.w3.org/2000/svg">
<rect width="40" height="40" rx="20" fill="#2B2753"/>
<path d="M25.7418 25.8265C26.0693 26.1573 26.0723 26.6967 25.7484 27.0312C23.8953 28.9457 21.4237 30 18.7888 30C13.3913 30 9 25.514 9 20C9 14.486 13.3913 10 18.7888 10C21.4237 10 23.8953 11.0543 25.7484 12.9687C26.0722 13.3032 26.0693 13.8426 25.7417 14.1735C25.4143 14.5043 24.8862 14.5013 24.5625 14.1667C23.0251 12.5785 20.9747 11.7038 18.7888 11.7038C14.3109 11.7038 10.6679 15.4255 10.6679 20C10.6679 24.5745 14.3109 28.2962 18.7888 28.2962C20.9747 28.2962 23.0251 27.4215 24.5625 25.8332C24.8863 25.4987 25.4143 25.4956 25.7418 25.8265ZM27.8322 16.4109C27.5065 16.0781 26.9785 16.0781 26.6528 16.4109C26.3271 16.7436 26.3272 17.283 26.6528 17.6157L28.1528 19.1481H18.7888C18.3282 19.1481 17.9549 19.5295 17.9549 20C17.9549 20.4705 18.3282 20.8519 18.7888 20.8519H28.1529L26.6528 22.3844C26.3271 22.7171 26.3272 23.2565 26.6528 23.5892C26.8156 23.7555 27.029 23.8387 27.2424 23.8387C27.4559 23.8387 27.6693 23.7556 27.8321 23.5892L30.7557 20.6024C30.9121 20.4427 31 20.226 31 20.0001C31 19.7742 30.9122 19.5574 30.7557 19.3977L27.8322 16.4109Z" fill="white"/>
</svg>
