<svg width="25" height="25" viewBox="0 0 25 25" fill="none" xmlns="http://www.w3.org/2000/svg">
<path d="M5.61444 7.98958C5.61444 11.3607 8.35791 14.1042 11.729 14.1042C15.1001 14.1042 17.8436 11.3607 17.8436 7.98958C17.8436 4.61846 15.1001 1.875 11.729 1.875C8.35791 1.875 5.61444 4.61846 5.61444 7.98958ZM7.42694 7.98958C7.42694 5.62112 9.36056 3.6875 11.729 3.6875C14.0975 3.6875 16.0311 5.62112 16.0311 7.98958C16.0311 10.358 14.0975 12.2917 11.729 12.2917C9.36056 12.2917 7.42694 10.358 7.42694 7.98958Z" fill="black" stroke="black" stroke-width="0.25"/>
<path d="M19.7708 23.6146C19.7708 24.1107 20.1809 24.5209 20.677 24.5209C21.1731 24.5209 21.5833 24.1107 21.5833 23.6146C21.5833 19.0769 17.14 15.4167 11.7292 15.4167C6.31835 15.4167 1.875 19.0769 1.875 23.6146C1.875 24.1107 2.28513 24.5209 2.78125 24.5209C3.27737 24.5209 3.6875 24.1107 3.6875 23.6146C3.6875 20.1149 7.27019 17.2292 11.7292 17.2292C16.1882 17.2292 19.7708 20.1149 19.7708 23.6146Z" fill="black" stroke="black" stroke-width="0.25"/>
</svg>
