<svg width="17" height="15" viewBox="0 0 17 15" fill="none" xmlns="http://www.w3.org/2000/svg">
<path d="M7.30723 0.76891L0.611715 12.365C0.49077 12.5745 0.427085 12.812 0.427063 13.0538C0.427041 13.2957 0.490682 13.5332 0.611587 13.7427C0.732493 13.9521 0.906403 14.126 1.11583 14.2469C1.32526 14.3678 1.56283 14.4315 1.80466 14.4314H15.1946C15.4364 14.4315 15.674 14.3678 15.8834 14.2469C16.0929 14.126 16.2668 13.9521 16.3877 13.7427C16.5086 13.5332 16.5722 13.2957 16.5722 13.0538C16.5722 12.812 16.5085 12.5745 16.3876 12.365L9.69276 0.76891C9.57188 0.55954 9.39801 0.385679 9.18864 0.2648C8.97926 0.143921 8.74176 0.0802841 8.5 0.0802841C8.25823 0.0802841 8.02073 0.143921 7.81136 0.2648C7.60198 0.385679 7.42812 0.55954 7.30723 0.76891Z" fill="#EE404C"/>
<path d="M8.58734 4.34541H8.41268C7.98268 4.34541 7.63409 4.694 7.63409 5.124V8.84551C7.63409 9.27551 7.98268 9.62409 8.41268 9.62409H8.58734C9.01734 9.62409 9.36592 9.27551 9.36592 8.84551V5.124C9.36592 4.694 9.01734 4.34541 8.58734 4.34541Z" fill="#FFF7ED"/>
<path d="M8.50001 12.5756C8.97824 12.5756 9.36592 12.188 9.36592 11.7097C9.36592 11.2315 8.97824 10.8438 8.50001 10.8438C8.02178 10.8438 7.63409 11.2315 7.63409 11.7097C7.63409 12.188 8.02178 12.5756 8.50001 12.5756Z" fill="#FFF7ED"/>
</svg>
