<svg width="15" height="16" viewBox="0 0 15 16" fill="none" xmlns="http://www.w3.org/2000/svg">
<path d="M14.5005 14.2338L12.4498 11.7562C13.5992 10.5074 14.3054 8.85589 14.3054 7.03859C14.3049 3.15103 11.1028 0 7.15245 0C3.20212 0 0 3.15103 0 7.03859C0 10.9261 3.20212 14.0772 7.15245 14.0772C8.85926 14.0772 10.4247 13.4868 11.6544 12.5054L13.7221 15C13.9367 15.2115 14.2853 15.2115 14.5 15C14.7152 14.7885 14.7152 14.4453 14.5005 14.2338ZM7.15245 12.9942C3.81004 12.9942 1.1005 10.3278 1.1005 7.03859C1.1005 3.74936 3.81004 1.08293 7.15245 1.08293C10.4949 1.08293 13.2044 3.74936 13.2044 7.03859C13.2044 10.3278 10.4949 12.9942 7.15245 12.9942Z" fill="#393469"/>
</svg>
