<svg width="14" height="14" viewBox="0 0 14 14" fill="none" xmlns="http://www.w3.org/2000/svg">
<g clip-path="url(#clip0_1_20)">
<path d="M11.9004 14H2.10044C1.82884 14 1.58172 13.8425 1.46624 13.5968C1.35075 13.3505 1.38856 13.0599 1.56275 12.852L6.439 6.99996L1.56275 1.14805C1.38856 0.939386 1.35139 0.648944 1.46624 0.403235C1.58172 0.157526 1.82884 0 2.10044 0H11.9004C12.2868 0 12.6004 0.313641 12.6004 0.699957V2.79996C12.6004 3.1864 12.2868 3.50004 11.9004 3.50004C11.514 3.50004 11.2004 3.1864 11.2004 2.79996V1.40004H3.59495L7.888 6.55199C8.10436 6.81167 8.10436 7.18901 7.888 7.44805L3.59495 12.6H11.2004V11.2C11.2004 10.8136 11.514 10.5 11.9004 10.5C12.2868 10.5 12.6004 10.8136 12.6004 11.2V13.3C12.6004 13.6864 12.2868 14 11.9004 14Z" fill="#11A0FC"/>
</g>
<defs>
<clipPath id="clip0_1_20">
<rect width="14" height="14" fill="white"/>
</clipPath>
</defs>
</svg>
