<svg width="21" height="21" viewBox="0 0 21 21" fill="none" xmlns="http://www.w3.org/2000/svg">
<circle cx="10.5" cy="10.5" r="10.5" fill="#11A0FC"/>
<path d="M7.0625 15.5C6.11458 15.5 5.30469 15.1719 4.63281 14.5156C3.96094 13.8594 3.625 13.0573 3.625 12.1094C3.625 11.2969 3.86979 10.5729 4.35938 9.9375C4.84896 9.30208 5.48958 8.89583 6.28125 8.71875C6.54167 7.76042 7.0625 6.98438 7.84375 6.39062C8.625 5.79688 9.51042 5.5 10.5 5.5C11.7188 5.5 12.7526 5.92448 13.6016 6.77344C14.4505 7.6224 14.875 8.65625 14.875 9.875C15.5938 9.95833 16.1901 10.2682 16.6641 10.8047C17.138 11.3411 17.375 11.9688 17.375 12.6875C17.375 13.4688 17.1016 14.1328 16.5547 14.6797C16.0078 15.2266 15.3438 15.5 14.5625 15.5H7.0625ZM7.0625 14.25H14.5625C15 14.25 15.3698 14.099 15.6719 13.7969C15.974 13.4948 16.125 13.125 16.125 12.6875C16.125 12.25 15.974 11.8802 15.6719 11.5781C15.3698 11.276 15 11.125 14.5625 11.125H13.625V9.875C13.625 9.01042 13.3203 8.27344 12.7109 7.66406C12.1016 7.05469 11.3646 6.75 10.5 6.75C9.63542 6.75 8.89844 7.05469 8.28906 7.66406C7.67969 8.27344 7.375 9.01042 7.375 9.875H7.0625C6.45833 9.875 5.94271 10.0885 5.51562 10.5156C5.08854 10.9427 4.875 11.4583 4.875 12.0625C4.875 12.6667 5.08854 13.1823 5.51562 13.6094C5.94271 14.0365 6.45833 14.25 7.0625 14.25Z" fill="white"/>
</svg>
