<svg width="21" height="21" viewBox="0 0 21 21" fill="none" xmlns="http://www.w3.org/2000/svg">
<circle cx="10.5" cy="10.5" r="10.5" fill="#11A0FC"/>
<g clip-path="url(#clip0_18_2)">
<path d="M14.875 4.875H6.125C5.4375 4.875 4.875 5.4375 4.875 6.125V10.5C4.875 11.1875 5.4375 11.75 6.125 11.75H14.875C15.5625 11.75 16.125 11.1875 16.125 10.5V6.125C16.125 5.4375 15.5625 4.875 14.875 4.875ZM6.125 9.25H8.08125C8.2125 9.7375 8.5 10.1687 8.875 10.5H6.125V9.25ZM14.875 10.5H12.125C12.5 10.1687 12.7875 9.7375 12.9187 9.25H14.875V10.5ZM14.875 8H11.75V8.625C11.75 9.29375 11.1687 9.875 10.5 9.875C9.83125 9.875 9.25 9.29375 9.25 8.625V8H6.125V6.125H14.875V8ZM13.625 12.375H11.75V13C11.75 13.2937 11.6313 13.5625 11.45 13.7812C11.2188 14.0625 10.875 14.25 10.5 14.25C10.125 14.25 9.78125 14.0625 9.55 13.7812C9.36875 13.5625 9.25 13.2937 9.25 13V12.375H4.875V14.875C4.875 15.5625 5.4375 16.125 6.125 16.125H14.875C15.5625 16.125 16.125 15.5625 16.125 14.875V12.375H13.625ZM6.125 13.625H8.08125C8.09375 13.6812 8.11875 13.7312 8.1375 13.7812C8.2875 14.2063 8.54375 14.5813 8.875 14.875H6.125V13.625ZM14.875 14.875H12.125C12.4625 14.5813 12.7188 14.2063 12.8625 13.7812C12.8812 13.7312 12.9062 13.6812 12.9187 13.625H14.875V14.875Z" fill="white"/>
</g>
<defs>
<clipPath id="clip0_18_2">
<rect width="15" height="15" fill="white" transform="translate(3 3)"/>
</clipPath>
</defs>
</svg>
